<svg width="62" height="62" viewBox="0 0 62 62" fill="none" xmlns="http://www.w3.org/2000/svg">
<path d="M29.6625 61.991C29.543 61.9833 29.143 61.9571 28.7736 61.9331C27.9612 61.8801 26.6951 61.7327 25.8895 61.5974C19.4796 60.5207 13.6797 57.5291 9.07604 52.9248C2.38811 46.2361 -0.852704 36.9697 0.192818 27.5252C1.25486 17.9316 6.76397 9.36599 15.084 4.37228C19.3763 1.796 24.0895 0.346967 29.2082 0.029894C30.1748 -0.0299789 32.7954 0.00519151 33.6924 0.0900552C37.0956 0.412098 40.1399 1.16845 43.1217 2.4328C43.9197 2.77119 45.672 3.64428 46.4141 4.07322C50.6553 6.52492 54.1794 9.8347 56.8639 13.8876C60.8993 19.9799 62.6223 27.2039 61.7996 34.5811C61.4811 37.4365 60.6957 40.4133 59.5416 43.1391C59.1592 44.0422 58.3025 45.752 57.8085 46.5979C53.6144 53.7796 46.7345 58.9896 38.7297 61.0458C37.0438 61.4788 35.2477 61.7739 33.3171 61.9351C32.8135 61.9771 30.0905 62.0188 29.6625 61.991ZM51.5154 46.4619C52.2228 46.3119 52.8203 45.7699 53.0619 45.0591L53.1502 44.7993L53.1616 33.5138C53.1679 27.3068 53.1626 22.1695 53.1495 22.0975C53.1312 21.9956 53.1089 21.9693 53.0487 21.9789C52.9867 21.9888 34.7559 36.1814 33.6448 37.0848C33.282 37.3797 32.7645 37.6591 32.3284 37.7955C31.1043 38.1782 29.6636 37.9338 28.7063 37.1809C26.5125 35.4556 8.20651 21.1819 8.14648 21.1498C8.08491 21.1169 8.05194 21.1173 8.01808 21.1512C7.98387 21.1854 7.97267 24.1131 7.97319 32.8993C7.97365 42.8343 7.98234 44.6416 8.02976 44.8656C8.19366 45.6393 8.83916 46.293 9.60324 46.4592C9.97846 46.5407 51.1311 46.5436 51.5155 46.462L51.5154 46.4619ZM31.627 35.0618C31.7187 35.0146 31.8523 34.9245 31.9239 34.8616C31.9955 34.7987 36.5958 31.2043 42.1469 26.874C49.4829 21.1513 52.269 18.9564 52.347 18.8385C52.7409 18.2433 52.4732 17.3949 51.7906 17.0746L51.5699 16.9711H31.1441C11.4916 16.9711 10.7105 16.9739 10.5121 17.043C9.85995 17.2706 9.50684 18.0947 9.80246 18.6993C9.85925 18.8154 9.9552 18.9566 10.0157 19.0131C10.0762 19.0695 14.6148 22.6162 20.1015 26.8945C25.5882 31.1728 30.1663 34.7507 30.2749 34.8454C30.5593 35.0932 30.7977 35.1779 31.1638 35.1612C31.3694 35.1518 31.5112 35.1213 31.627 35.0618Z" fill="black"/>
</svg>
