<?xml version="1.0" encoding="UTF-8" standalone="no"?>
<!-- Created with Inkscape (http://www.inkscape.org/) -->

<svg
   xmlns:dc="http://purl.org/dc/elements/1.1/"
   xmlns:cc="http://creativecommons.org/ns#"
   xmlns:rdf="http://www.w3.org/1999/02/22-rdf-syntax-ns#"
   xmlns:svg="http://www.w3.org/2000/svg"
   xmlns="http://www.w3.org/2000/svg"
   xmlns:sodipodi="http://sodipodi.sourceforge.net/DTD/sodipodi-0.dtd"
   xmlns:inkscape="http://www.inkscape.org/namespaces/inkscape"
   version="1.1"
   id="svg2"
   width="512"
   height="512"
   viewBox="0 0 512 512"
   sodipodi:docname="email-icon.svg"
   inkscape:version="0.92.3 (2405546, 2018-03-11)">
  <metadata
     id="metadata8">
    <rdf:RDF>
      <cc:Work
         rdf:about="">
        <dc:format>image/svg+xml</dc:format>
        <dc:type
           rdf:resource="http://purl.org/dc/dcmitype/StillImage" />
        <dc:title></dc:title>
      </cc:Work>
    </rdf:RDF>
  </metadata>
  <defs
     id="defs6" />
  <sodipodi:namedview
     pagecolor="#ffffff"
     bordercolor="#666666"
     borderopacity="1"
     objecttolerance="10"
     gridtolerance="10"
     guidetolerance="10"
     inkscape:pageopacity="0"
     inkscape:pageshadow="2"
     inkscape:window-width="1920"
     inkscape:window-height="1023"
     id="namedview4"
     showgrid="false"
     inkscape:zoom="0.65186406"
     inkscape:cx="359.66813"
     inkscape:cy="208.70412"
     inkscape:window-x="0"
     inkscape:window-y="0"
     inkscape:window-maximized="1"
     inkscape:current-layer="svg2"
     inkscape:snap-page="true"
     inkscape:pagecheckerboard="true" />
  <g
     inkscape:groupmode="layer"
     id="layer1"
     inkscape:label="Layer 1">
    <path
       style="fill:#ffffff;fill-opacity:0.99444442;stroke:none;stroke-width:0.5;stroke-miterlimit:4;stroke-dasharray:none"
       d="M 256 0 A 256 256 0 0 0 0 256 A 256 256 0 0 0 256 512 A 256 256 0 0 0 512 256 A 256 256 0 0 0 256 0 z M 199.51172 136.67969 C 216.43649 136.67069 236.29912 136.69073 259.25586 136.73633 C 400.63152 137.0175 395.5 136.83503 395.5 141.54492 C 395.5 144.26807 392.88676 146.55111 350.90625 180.47266 C 329.50817 197.76297 302.69895 219.46021 291.33203 228.68945 C 279.9651 237.91869 269.1651 246.35015 267.33203 247.42578 C 262.39049 250.32541 254.98141 250.86748 249.15625 248.75586 C 245.84645 247.55606 237.6147 241.55864 223.15625 229.8125 C 211.52 220.35917 183.55 197.70807 161 179.47852 C 138.45 161.24897 119.3686 145.30335 118.5957 144.04297 C 116.60624 140.79872 117.77907 138.77046 122.35938 137.53711 C 124.41186 136.98443 148.73739 136.70697 199.51172 136.67969 z M 418.45508 146.12695 C 421.8186 146.17265 425.44224 148.41845 426.21484 151.1875 C 426.64651 152.73461 426.99845 200.575 426.99609 257.5 C 426.99209 353.25189 426.86304 361.23436 425.28125 364.13086 C 422.96244 368.37695 418.21232 372.2071 413.71875 373.45508 C 411.23184 374.14576 358.98156 374.47679 256 374.45117 C 128.16778 374.41937 101.3458 374.17895 98.154297 373.04102 C 93.700835 371.45314 90.000462 368.2616 87.669922 364 C 86.183292 361.28158 86.009302 351.42632 85.826172 259 C 85.701142 195.89735 85.993927 155.58441 86.591797 153.28711 C 87.701747 149.02221 90.72068 146.5 94.71875 146.5 C 97.733472 146.5 97.885332 146.6173 178.5 211.91016 C 188.675 220.15128 202.85 231.62681 210 237.41016 C 217.15 243.19351 227.50151 251.58649 233.00391 256.06055 C 247.58625 267.91759 252.12865 269.74886 261.42969 267.51758 C 266.9764 266.18695 265.87767 267.03714 350 198.93359 C 414.69126 146.56099 414.46361 146.74038 417.03906 146.24805 C 417.4999 146.15995 417.97457 146.12042 418.45508 146.12695 z "
       id="path884" />
  </g>
  <g
     inkscape:groupmode="layer"
     id="layer2"
     inkscape:label="Layer 2" />
</svg>
