<?xml version="1.0" encoding="UTF-8" standalone="no"?>
<svg
   xmlns:dc="http://purl.org/dc/elements/1.1/"
   xmlns:cc="http://creativecommons.org/ns#"
   xmlns:rdf="http://www.w3.org/1999/02/22-rdf-syntax-ns#"
   xmlns:svg="http://www.w3.org/2000/svg"
   xmlns="http://www.w3.org/2000/svg"
   xmlns:sodipodi="http://sodipodi.sourceforge.net/DTD/sodipodi-0.dtd"
   xmlns:inkscape="http://www.inkscape.org/namespaces/inkscape"
   width="62"
   height="62"
   viewBox="0 0 62 62"
   fill="none"
   version="1.1"
   id="svg972"
   sodipodi:docname="github-icon.svg"
   inkscape:version="0.92.3 (2405546, 2018-03-11)">
  <metadata
     id="metadata978">
    <rdf:RDF>
      <cc:Work
         rdf:about="">
        <dc:format>image/svg+xml</dc:format>
        <dc:type
           rdf:resource="http://purl.org/dc/dcmitype/StillImage" />
      </cc:Work>
    </rdf:RDF>
  </metadata>
  <defs
     id="defs976" />
  <sodipodi:namedview
     pagecolor="#ffffff"
     bordercolor="#666666"
     borderopacity="1"
     objecttolerance="10"
     gridtolerance="10"
     guidetolerance="10"
     inkscape:pageopacity="0"
     inkscape:pageshadow="2"
     inkscape:window-width="774"
     inkscape:window-height="480"
     id="namedview974"
     showgrid="false"
     inkscape:zoom="3.8064516"
     inkscape:cx="1.7076271"
     inkscape:cy="31"
     inkscape:window-x="0"
     inkscape:window-y="0"
     inkscape:window-maximized="0"
     inkscape:current-layer="svg972" />
  <path
     d="M57.8412 16.1978C55.0691 11.4481 51.3089 7.68784 46.5597 4.91603C41.8098 2.14409 36.6243 0.758469 30.9995 0.758469C25.3755 0.758469 20.1883 2.14451 15.4393 4.91603C10.6897 7.6877 6.92965 11.4481 4.15757 16.1978C1.3859 20.9473 0 26.1338 0 31.7571C0 38.512 1.97077 44.5862 5.9133 49.9813C9.85541 55.3767 14.948 59.1101 21.1907 61.182C21.9174 61.3169 22.4553 61.222 22.8051 60.8998C23.155 60.5772 23.3298 60.1731 23.3298 59.6894C23.3298 59.6086 23.3228 58.8824 23.3094 57.5098C23.2955 56.1372 23.289 54.9397 23.289 53.918L22.3606 54.0786C21.7687 54.187 21.0219 54.233 20.1204 54.22C19.2193 54.2074 18.2838 54.113 17.3152 53.9374C16.3462 53.7633 15.445 53.3597 14.6107 52.7273C13.7769 52.095 13.1849 51.2672 12.835 50.2453L12.4314 49.3165C12.1624 48.6981 11.7388 48.0112 11.1602 47.2582C10.5815 46.5046 9.99637 45.9936 9.40443 45.7246L9.12182 45.5223C8.93351 45.3878 8.75877 45.2257 8.59717 45.0375C8.43572 44.8493 8.31485 44.661 8.23412 44.4724C8.15326 44.2837 8.22027 44.1289 8.43586 44.0074C8.65146 43.886 9.04109 43.8271 9.60645 43.8271L10.4134 43.9476C10.9516 44.0555 11.6174 44.3777 12.4115 44.9162C13.2052 45.4543 13.8576 46.1538 14.369 47.0145C14.9882 48.1181 15.7342 48.959 16.6092 49.5376C17.4835 50.1163 18.3649 50.4051 19.2528 50.4051C20.1406 50.4051 20.9074 50.3378 21.5535 50.2039C22.1989 50.0693 22.8044 49.867 23.3698 49.5981C23.6119 47.7945 24.2713 46.4088 25.3473 45.4403C23.8137 45.2791 22.4348 45.0364 21.2101 44.7136C19.9861 44.3904 18.7212 43.8659 17.4163 43.1387C16.1107 42.4124 15.0276 41.5106 14.1668 40.4348C13.3058 39.3583 12.5992 37.9451 12.048 36.1965C11.4965 34.4471 11.2207 32.4291 11.2207 30.1419C11.2207 26.8853 12.2838 24.1141 14.4097 21.8266C13.4138 19.3783 13.5078 16.6336 14.692 13.5929C15.4724 13.3505 16.6297 13.5324 18.1633 14.1377C19.6973 14.7432 20.8203 15.2619 21.5337 15.6919C22.2471 16.1219 22.8187 16.4862 23.2493 16.7817C25.7524 16.0823 28.3354 15.7325 30.9992 15.7325C33.663 15.7325 36.2467 16.0823 38.7498 16.7817L40.2836 15.8134C41.3325 15.1673 42.5711 14.5752 43.9964 14.037C45.4226 13.4991 46.5132 13.3509 47.267 13.5934C48.4775 16.6342 48.5853 19.3787 47.5892 21.8271C49.7149 24.1145 50.7785 26.8865 50.7785 30.1423C50.7785 32.4295 50.5017 34.4539 49.951 36.2167C49.3996 37.9798 48.687 39.3915 47.8127 40.455C46.9374 41.5183 45.8474 42.413 44.5426 43.1391C43.2374 43.8658 41.9721 44.3903 40.748 44.7135C39.5234 45.0367 38.1446 45.2795 36.611 45.441C38.0097 46.6514 38.7093 48.5621 38.7093 51.1722V59.6882C38.7093 60.172 38.8775 60.5759 39.2143 60.8987C39.5506 61.2209 40.0817 61.3157 40.8084 61.1807C47.052 59.1092 52.1446 55.3756 56.0866 49.9801C60.0281 44.5851 61.9996 38.5109 61.9996 31.756C61.9982 26.1334 60.6115 20.9473 57.8412 16.1978Z"
     fill="black"
     id="path970"
     style="fill:#ffffff" />
</svg>
